<svg width="181" height="30" viewBox="0 0 181 30" fill="none" xmlns="http://www.w3.org/2000/svg">
<g id="Group 15">
<g id="Group">
<path id="Vector" d="M44.638 22.4482C42.8971 22.4482 41.4263 22.0451 40.2343 21.2433C39.0379 20.4414 38.3176 19.1679 38.0688 17.427L40.2214 16.9381C40.3758 17.8558 40.6631 18.5804 41.0833 19.1036C41.5035 19.631 42.0266 20.004 42.6484 20.2227C43.2702 20.4414 43.9348 20.5529 44.6423 20.5529C45.6929 20.5529 46.5247 20.3428 47.1379 19.9226C47.7511 19.5024 48.0555 18.9363 48.0555 18.2288C48.0555 17.5213 47.764 16.9896 47.1808 16.6937C46.5976 16.3979 45.8001 16.1534 44.7838 15.9605L43.6089 15.759C42.7084 15.6046 41.8851 15.3687 41.139 15.0429C40.3929 14.717 39.8012 14.2796 39.3595 13.7222C38.9179 13.169 38.6992 12.4701 38.6992 11.6253C38.6992 10.3604 39.188 9.37845 40.1614 8.67093C41.139 7.96341 42.4297 7.60751 44.0377 7.60751C45.6457 7.60751 46.9106 7.9677 47.8969 8.6838C48.8831 9.39989 49.5177 10.4118 49.805 11.7111L47.6825 12.2557C47.511 11.2437 47.0993 10.5276 46.4475 10.116C45.7958 9.70433 44.9939 9.49851 44.0377 9.49851C43.0815 9.49851 42.3268 9.67432 41.7694 10.0302C41.2162 10.3861 40.9375 10.905 40.9375 11.5953C40.9375 12.2857 41.1991 12.7574 41.7265 13.0747C42.2539 13.392 42.9571 13.6235 43.8362 13.7779L45.0111 13.9794C46.0059 14.151 46.9021 14.3868 47.6953 14.6827C48.4886 14.9785 49.119 15.4073 49.5906 15.9605C50.058 16.5136 50.2939 17.2426 50.2939 18.1431C50.2939 19.5195 49.7836 20.5829 48.7588 21.329C47.7339 22.0751 46.3618 22.4482 44.6423 22.4482H44.638Z" fill="white"/>
<path id="Vector_2" d="M54.1099 22.0445V8.00993H56.3182V9.75943H56.7212C56.9871 9.26202 57.4288 8.80321 58.0419 8.38299C58.6551 7.96277 59.517 7.75266 60.6233 7.75266C61.7296 7.75266 62.6001 7.99278 63.2776 8.46875C63.9551 8.949 64.4482 9.53216 64.7569 10.2182H65.16C65.4859 9.52788 65.979 8.94471 66.6393 8.46875C67.2997 7.99278 68.2216 7.75266 69.4094 7.75266C70.3484 7.75266 71.1674 7.94562 71.8792 8.32725C72.5867 8.70888 73.1485 9.26202 73.5601 9.97811C73.9718 10.6942 74.1776 11.5518 74.1776 12.5466V22.0488H71.9093V12.7481C71.9093 11.8091 71.6348 11.0673 71.0902 10.5227C70.5457 9.97811 69.7824 9.70368 68.809 9.70368C67.7756 9.70368 66.9309 10.0381 66.2706 10.7071C65.6102 11.376 65.28 12.3451 65.28 13.6057V22.0445H63.0117V12.7439C63.0117 11.8048 62.7373 11.063 62.1927 10.5184C61.6481 9.97383 60.8849 9.6994 59.9115 9.6994C58.8781 9.6994 58.0334 10.0339 57.373 10.7028C56.7127 11.3717 56.3825 12.3408 56.3825 13.6015V22.0402H54.1142L54.1099 22.0445Z" fill="white"/>
<path id="Vector_3" d="M83.0974 22.4482C82.1197 22.4482 81.2321 22.2767 80.426 21.9337C79.6241 21.5906 78.9895 21.0932 78.5307 20.4415C78.0719 19.7897 77.8403 18.9964 77.8403 18.0573C77.8403 17.1183 78.0719 16.3121 78.5307 15.6904C78.9895 15.0686 79.6198 14.6012 80.426 14.2839C81.2278 13.9666 82.1283 13.8123 83.1231 13.8123H87.857V12.7789C87.857 11.784 87.5655 10.9993 86.9823 10.4248C86.3991 9.85017 85.533 9.56287 84.3838 9.56287C83.2346 9.56287 82.3727 9.83731 81.7424 10.3819C81.1121 10.9265 80.679 11.6597 80.4517 12.5773L78.3292 11.887C78.5607 11.1023 78.9209 10.3905 79.4183 9.74726C79.9157 9.10835 80.5804 8.5895 81.4122 8.1993C82.2441 7.80909 83.2432 7.61185 84.4095 7.61185C86.2062 7.61185 87.604 8.07495 88.5989 9.00544C89.5937 9.93164 90.0911 11.2395 90.0911 12.9246V19.2666C90.0911 19.8411 90.3569 20.1284 90.8929 20.1284H92.1836V22.0495H90.2026C89.5722 22.0495 89.062 21.8736 88.6803 21.5177C88.2987 21.1618 88.1057 20.6902 88.1057 20.0984V19.9569H87.7627C87.5526 20.3214 87.2696 20.6987 86.918 21.0889C86.5621 21.4834 86.0818 21.805 85.4686 22.0666C84.8555 22.3239 84.0622 22.4525 83.0845 22.4525L83.0974 22.4482ZM83.359 20.4929C84.6968 20.4929 85.7859 20.0941 86.6178 19.3009C87.4497 18.5076 87.8656 17.3927 87.8656 15.9562V15.6389H83.2175C82.317 15.6389 81.5752 15.8362 80.992 16.2264C80.4088 16.6209 80.1172 17.2083 80.1172 17.993C80.1172 18.7777 80.4174 19.3909 81.022 19.8283C81.6266 20.2699 82.4027 20.4886 83.359 20.4886V20.4929Z" fill="white"/>
<path id="Vector_4" d="M95.2964 22.0447V1.95557H97.5647V22.0447H95.2964Z" fill="white"/>
<path id="Vector_5" d="M102.329 22.0447V1.95557H104.597V22.0447H102.329Z" fill="white"/>
<path id="Vector_6" d="M115.788 22.4482C114.373 22.4482 113.129 22.1481 112.057 21.5435C110.985 20.9389 110.154 20.0941 109.562 19.005C108.97 17.9158 108.67 16.6509 108.67 15.2144V14.8714C108.67 13.4178 108.966 12.1442 109.562 11.0551C110.154 9.96594 110.977 9.11692 112.032 8.51661C113.082 7.912 114.287 7.61185 115.646 7.61185C117.006 7.61185 118.133 7.89485 119.15 8.45658C120.162 9.02259 120.959 9.82873 121.534 10.8836C122.108 11.9341 122.396 13.1691 122.396 14.5841V15.6175H110.943C110.998 17.1311 111.487 18.3103 112.405 19.1636C113.322 20.017 114.472 20.4415 115.848 20.4415C117.053 20.4415 117.979 20.1627 118.631 19.6096C119.283 19.0564 119.78 18.3961 120.123 17.6286L122.074 18.5762C121.787 19.1679 121.388 19.764 120.882 20.3557C120.376 20.9474 119.716 21.4449 118.901 21.8479C118.086 22.251 117.049 22.4525 115.788 22.4525V22.4482ZM110.968 13.7479H120.093C120.016 12.4487 119.57 11.4324 118.76 10.7078C117.945 9.97881 116.907 9.61862 115.646 9.61862C114.386 9.61862 113.314 9.98309 112.49 10.7078C111.667 11.4367 111.161 12.4487 110.968 13.7479Z" fill="white"/>
<path id="Vector_7" d="M132.006 22.4482C130.265 22.4482 128.794 22.0451 127.602 21.2433C126.406 20.4414 125.685 19.1679 125.437 17.427L127.589 16.9381C127.743 17.8558 128.031 18.5804 128.451 19.1036C128.871 19.631 129.394 20.004 130.016 20.2227C130.638 20.4414 131.302 20.5529 132.01 20.5529C133.061 20.5529 133.892 20.3428 134.506 19.9226C135.119 19.5024 135.423 18.9363 135.423 18.2288C135.423 17.5213 135.132 16.9896 134.548 16.6937C133.965 16.3979 133.168 16.1534 132.151 15.9605L130.977 15.759C130.076 15.6046 129.253 15.3687 128.507 15.0429C127.761 14.717 127.169 14.2796 126.727 13.7222C126.286 13.169 126.067 12.4701 126.067 11.6253C126.067 10.3604 126.556 9.37845 127.529 8.67093C128.507 7.96341 129.797 7.60751 131.405 7.60751C133.013 7.60751 134.278 7.9677 135.265 8.6838C136.251 9.39989 136.885 10.4118 137.173 11.7111L135.05 12.2557C134.879 11.2437 134.467 10.5276 133.815 10.116C133.163 9.70433 132.362 9.49851 131.405 9.49851C130.449 9.49851 129.694 9.67432 129.137 10.0302C128.584 10.3861 128.305 10.905 128.305 11.5953C128.305 12.2857 128.567 12.7574 129.094 13.0747C129.622 13.392 130.325 13.6235 131.204 13.7779L132.379 13.9794C133.374 14.151 134.27 14.3868 135.063 14.6827C135.856 14.9785 136.487 15.4073 136.958 15.9605C137.426 16.5136 137.662 17.2426 137.662 18.1431C137.662 19.5195 137.151 20.5829 136.126 21.329C135.102 22.0751 133.729 22.4482 132.01 22.4482H132.006Z" fill="white"/>
<path id="Vector_8" d="M146.327 22.0461C145.525 22.0461 144.908 21.8274 144.475 21.3858C144.046 20.9441 143.827 20.3438 143.827 19.5763V9.98834H139.608V8.0073H143.827V3.01181H146.096V8.0073H150.688V9.98834H146.096V19.2289C146.096 19.8035 146.374 20.0908 146.927 20.0908H150.058V22.0418H146.327V22.0461Z" fill="white"/>
<path id="Vector_9" d="M155.598 22.4485C155.041 22.4485 154.578 22.2684 154.205 21.9039C153.832 21.5394 153.643 21.072 153.643 20.4974C153.643 19.9229 153.832 19.4555 154.205 19.091C154.578 18.7265 155.041 18.5464 155.598 18.5464C156.156 18.5464 156.64 18.7265 157.005 19.091C157.369 19.4555 157.549 19.9229 157.549 20.4974C157.549 21.072 157.369 21.5394 157.005 21.9039C156.64 22.2684 156.173 22.4485 155.598 22.4485Z" fill="white"/>
<path id="Vector_10" d="M165.927 22.4482C164.95 22.4482 164.062 22.2767 163.256 21.9337C162.454 21.5906 161.82 21.0932 161.361 20.4415C160.902 19.7897 160.67 18.9964 160.67 18.0573C160.67 17.1183 160.902 16.3121 161.361 15.6904C161.82 15.0686 162.45 14.6012 163.256 14.2839C164.058 13.9666 164.958 13.8123 165.953 13.8123H170.687V12.7789C170.687 11.784 170.396 10.9993 169.812 10.4248C169.229 9.85017 168.363 9.56287 167.214 9.56287C166.065 9.56287 165.203 9.83731 164.572 10.3819C163.942 10.9265 163.509 11.6597 163.282 12.5773L161.159 11.887C161.391 11.1023 161.751 10.3905 162.248 9.74726C162.746 9.10835 163.41 8.5895 164.242 8.1993C165.074 7.80909 166.073 7.61185 167.24 7.61185C169.036 7.61185 170.434 8.07495 171.429 9.00544C172.424 9.93164 172.921 11.2395 172.921 12.9246V19.2666C172.921 19.8411 173.187 20.1284 173.723 20.1284H175.014V22.0495H173.033C172.402 22.0495 171.892 21.8736 171.51 21.5177C171.129 21.1618 170.936 20.6902 170.936 20.0984V19.9569H170.593C170.383 20.3214 170.1 20.6987 169.748 21.0889C169.392 21.4834 168.912 21.805 168.299 22.0666C167.686 22.3239 166.892 22.4525 165.915 22.4525L165.927 22.4482ZM166.189 20.4929C167.527 20.4929 168.616 20.0941 169.448 19.3009C170.28 18.5076 170.696 17.3927 170.696 15.9562V15.6389H166.048C165.147 15.6389 164.405 15.8362 163.822 16.2264C163.239 16.6209 162.947 17.2083 162.947 17.993C162.947 18.7777 163.247 19.3909 163.852 19.8283C164.457 20.2699 165.233 20.4886 166.189 20.4886V20.4929Z" fill="white"/>
<path id="Vector_11" d="M179.276 5.8269C178.778 5.8269 178.363 5.66395 178.028 5.33807C177.694 5.01218 177.526 4.60054 177.526 4.10313C177.526 3.60573 177.694 3.16406 178.028 2.84247C178.363 2.51658 178.778 2.35364 179.276 2.35364C179.773 2.35364 180.185 2.51658 180.511 2.84247C180.837 3.16835 181 3.58858 181 4.10313C181 4.61769 180.837 5.01218 180.511 5.33807C180.185 5.66395 179.773 5.8269 179.276 5.8269ZM178.127 22.044V8.00947H180.395V22.044H178.127Z" fill="white"/>
</g>
<g id="Group_2">
<g id="Group_3">
<path id="Vector_12" d="M12.3072 18.2718H0.738198C0.172185 18.2718 -0.183716 17.6586 0.0992905 17.1655L1.54434 14.6613C1.71157 14.374 2.04603 14.2282 2.37191 14.3097L12.4872 16.8182C13.332 17.0283 13.1819 18.2718 12.3114 18.2718H12.3072Z" fill="white"/>
<path id="Vector_13" d="M11.406 15.3371L3.0788 13.2745C2.56425 13.1459 2.31555 12.567 2.5814 12.1082L3.61909 10.3115C3.83349 9.93849 4.30945 9.80127 4.69108 10.0028L11.9806 13.862C12.8125 14.3036 12.3237 15.56 11.406 15.3371Z" fill="white"/>
<path id="Vector_14" d="M11.4193 12.2369L5.086 8.88367C4.68722 8.67356 4.54571 8.17616 4.76869 7.78595L5.50193 6.51671C5.55767 6.42238 5.61342 6.32375 5.67345 6.2337C5.93502 5.80919 6.52247 5.72772 6.89552 6.0579L12.3327 10.9419C13.0316 11.5679 12.2512 12.6742 11.4193 12.2369Z" fill="white"/>
<path id="Vector_15" d="M12.4052 9.42923L7.55119 5.07265C7.21244 4.7682 7.20386 4.24078 7.52546 3.9149C7.92424 3.51183 8.34446 3.13877 8.79041 2.79573C9.15918 2.51273 9.69089 2.5942 9.95245 2.97583L13.6101 8.39154C14.1332 9.16767 13.1084 10.0553 12.4095 9.42923H12.4052Z" fill="white"/>
<path id="Vector_16" d="M14.0264 6.93037L11.0334 2.48374C10.7546 2.06781 10.9305 1.5018 11.3936 1.30026C11.8266 1.11588 12.2683 0.952938 12.7143 0.82001C13.1002 0.704235 13.5375 0.940075 13.6748 1.31742L15.4457 6.21428C15.763 7.09761 14.5538 7.7065 14.0307 6.93037H14.0264Z" fill="white"/>
<path id="Vector_17" d="M17.3747 1.13183L17.7263 4.53219C17.8206 5.46697 16.4999 5.76713 16.1783 4.88809L14.9391 1.47486C14.7547 0.964595 15.1235 0.415734 15.6681 0.40287C15.994 0.394294 16.3241 0.40287 16.65 0.420022C17.0145 0.441462 17.3361 0.771637 17.3747 1.12754V1.13183Z" fill="white"/>
<path id="Vector_18" d="M20.6859 2.21216L20.4414 3.91449C20.3085 4.84498 18.9492 4.81925 18.8549 3.88876L18.6619 2.01492C18.6019 1.41889 19.1936 0.981516 19.7554 1.19163C19.914 1.25166 20.0727 1.31598 20.2313 1.3803C20.5315 1.50894 20.7373 1.89057 20.6901 2.21645L20.6859 2.21216Z" fill="white"/>
<path id="Vector_19" d="M23.1643 4.06949C22.8084 4.93995 21.5005 4.58834 21.6335 3.66213C21.7149 3.1047 22.3324 2.80454 22.8212 3.08326C23.1686 3.2805 23.3144 3.70073 23.1643 4.06949Z" fill="white"/>
</g>
<g id="Group_4">
<path id="Vector_20" d="M14.1938 11.729H25.7628C26.3288 11.729 26.6847 12.3422 26.4017 12.8353L24.9566 15.3395C24.7894 15.6268 24.4549 15.7726 24.129 15.6911L14.0137 13.1826C13.169 12.9725 13.3191 11.729 14.1895 11.729H14.1938Z" fill="white"/>
<path id="Vector_21" d="M15.0895 14.6625L23.4168 16.725C23.9313 16.8536 24.18 17.4325 23.9142 17.8913L22.8765 19.688C22.6621 20.061 22.1861 20.1982 21.8045 19.9967L14.5149 16.1375C13.6831 15.6959 14.1719 14.4395 15.0895 14.6625Z" fill="white"/>
<path id="Vector_22" d="M15.0771 17.758L21.4105 21.1112C21.8092 21.3213 21.9508 21.8187 21.7278 22.2089L20.9945 23.4782C20.9388 23.5725 20.883 23.6711 20.823 23.7612C20.5615 24.1857 19.974 24.2672 19.6009 23.937L14.1638 19.053C13.4649 18.4269 14.2453 17.3206 15.0771 17.758Z" fill="white"/>
<path id="Vector_23" d="M14.091 20.5674L18.945 24.924C19.2837 25.2284 19.2923 25.7558 18.9707 26.0817C18.5719 26.4848 18.1517 26.8578 17.7058 27.2009C17.337 27.4839 16.8053 27.4024 16.5437 27.0208L12.8861 21.6051C12.3629 20.8289 13.3878 19.9413 14.0867 20.5674H14.091Z" fill="white"/>
<path id="Vector_24" d="M12.474 23.0713L15.4671 27.518C15.7458 27.9339 15.57 28.4999 15.1069 28.7014C14.6738 28.8858 14.2321 29.0488 13.7862 29.1817C13.4002 29.2975 12.9629 29.0616 12.8257 28.6843L11.0547 23.7874C10.7374 22.9041 11.9466 22.2952 12.4698 23.0713H12.474Z" fill="white"/>
<path id="Vector_25" d="M9.12498 28.8682L8.77336 25.4678C8.67903 24.533 9.99973 24.2329 10.3213 25.1119L11.5605 28.5251C11.7449 29.0354 11.3762 29.5843 10.8316 29.5971C10.5057 29.6057 10.1755 29.5971 9.84965 29.58C9.48517 29.5585 9.16357 29.2284 9.12498 28.8725V28.8682Z" fill="white"/>
<path id="Vector_26" d="M5.81473 27.7829L6.05914 26.0806C6.19207 25.1501 7.55136 25.1758 7.64569 26.1063L7.83865 27.9802C7.89868 28.5762 7.30694 29.0136 6.74522 28.8035C6.58656 28.7434 6.42791 28.6791 6.26925 28.6148C5.9691 28.4861 5.76327 28.1045 5.81044 27.7786L5.81473 27.7829Z" fill="white"/>
<path id="Vector_27" d="M3.33608 25.9265C3.69198 25.056 4.99981 25.4076 4.86689 26.3338C4.78541 26.8913 4.16795 27.1914 3.67912 26.9127C3.33179 26.7155 3.186 26.2952 3.33608 25.9265Z" fill="white"/>
</g>
</g>
</g>
</svg>
